<svg width="123" height="98" viewBox="0 0 123 98" fill="none" xmlns="http://www.w3.org/2000/svg">
<path fill-rule="evenodd" clip-rule="evenodd" d="M61.4399 28.6801C65.4114 28.6801 69.2937 29.8577 72.5958 32.0641C75.8979 34.2706 78.4716 37.4066 79.9914 41.0758C81.5113 44.7449 81.9089 48.7823 81.1341 52.6775C80.3593 56.5726 78.4469 60.1505 75.6386 62.9588C72.8304 65.767 69.2525 67.6794 65.3574 68.4542C61.4622 69.229 57.4248 68.8314 53.7557 67.3116C50.0865 65.7917 46.9505 63.218 44.744 59.9159C42.5376 56.6138 41.3599 52.7315 41.3599 48.7601C41.3599 43.4345 43.4755 38.3271 47.2412 34.5613C51.007 30.7956 56.1144 28.6801 61.4399 28.6801ZM22.2999 91.3701C23.116 91.3727 23.8979 91.698 24.4749 92.2751C25.052 92.8521 25.3773 93.634 25.3799 94.4501C25.3799 94.8541 25.3002 95.2541 25.1453 95.6272C24.9904 96.0003 24.7634 96.3392 24.4772 96.6244C24.1911 96.9096 23.8515 97.1355 23.4779 97.2892C23.1042 97.4429 22.7039 97.5214 22.2999 97.5201H3.86995C3.05573 97.5201 2.27487 97.1966 1.69913 96.6209C1.12339 96.0451 0.799947 95.2643 0.799947 94.4501V76.3001C0.803042 75.6932 0.985356 75.1007 1.324 74.5971C1.66264 74.0935 2.14252 73.7012 2.70338 73.4693C3.26424 73.2375 3.88109 73.1765 4.47649 73.2941C5.07188 73.4116 5.61927 73.7025 6.04995 74.1301L6.11995 74.2101C6.66841 74.7695 6.98309 75.5168 6.99995 76.3001V91.3701H22.2999ZM22.2999 5.25986e-05C23.1166 0.00219551 23.8996 0.325467 24.4799 0.900053L24.5499 0.980053C24.9602 1.4175 25.2333 1.96551 25.3356 2.55643C25.4379 3.14734 25.3648 3.75527 25.1255 4.30516C24.8862 4.85504 24.4911 5.32279 23.989 5.65065C23.4868 5.97851 22.8996 6.15213 22.2999 6.15005H6.99995V21.2201C6.95515 22.0053 6.61166 22.7436 6.0399 23.2837C5.46815 23.8237 4.71144 24.1246 3.92495 24.1246C3.13845 24.1246 2.38175 23.8237 1.80999 23.2837C1.23823 22.7436 0.894744 22.0053 0.849947 21.2201V3.08005C0.839708 2.67994 0.909638 2.28182 1.05562 1.90914C1.2016 1.53646 1.42067 1.19677 1.69995 0.910053C1.98165 0.619953 2.3191 0.389797 2.692 0.233417C3.06491 0.0770362 3.46558 -0.00234181 3.86995 5.25986e-05H22.2999ZM100.58 6.15005C100.176 6.15137 99.7757 6.07293 99.402 5.91924C99.0284 5.76555 98.6888 5.53962 98.4027 5.25441C98.1165 4.96921 97.8895 4.63033 97.7346 4.25721C97.5797 3.88408 97.4999 3.48405 97.4999 3.08005C97.5026 2.264 97.8279 1.48212 98.405 0.905077C98.982 0.328035 99.7639 0.00268931 100.58 5.25986e-05H119C119.813 0.00374312 120.593 0.326979 121.17 0.900053C121.456 1.18615 121.683 1.52605 121.838 1.90018C121.992 2.27431 122.071 2.67529 122.07 3.08005V21.2201C122.07 21.6232 121.991 22.0224 121.836 22.3949C121.682 22.7674 121.456 23.1058 121.171 23.3909C120.886 23.6759 120.547 23.9021 120.175 24.0564C119.802 24.2106 119.403 24.2901 119 24.2901C118.186 24.2874 117.405 23.9635 116.828 23.3886C116.252 22.8137 115.925 22.0344 115.92 21.2201V6.15005H100.58ZM100.58 97.5201C100.176 97.5214 99.7757 97.4429 99.402 97.2892C99.0284 97.1355 98.6888 96.9096 98.4027 96.6244C98.1165 96.3392 97.8895 96.0003 97.7346 95.6272C97.5797 95.2541 97.4999 94.8541 97.4999 94.4501C97.5026 93.634 97.8279 92.8521 98.405 92.2751C98.982 91.698 99.7639 91.3727 100.58 91.3701H115.93V76.3001C115.93 75.4858 116.253 74.705 116.829 74.1292C117.405 73.5535 118.186 73.2301 119 73.2301C119.814 73.2301 120.595 73.5535 121.171 74.1292C121.746 74.705 122.07 75.4858 122.07 76.3001V94.4501C122.07 95.2643 121.746 96.0451 121.171 96.6209C120.595 97.1966 119.814 97.5201 119 97.5201H100.58ZM0.999947 46.2401C3.82065 42.8197 6.87818 39.6018 10.1499 36.6101C24.4899 23.6101 41.5099 16.6101 59.0599 16.2401C76.6099 15.8701 94.5299 22.1401 110.76 35.5301C114.759 38.8367 118.515 42.4259 122 46.2701C122.554 46.8792 122.88 47.6616 122.922 48.4839C122.963 49.3062 122.719 50.1177 122.23 50.7801C118.269 56.4174 113.533 61.4673 108.16 65.7801C95.4061 75.867 79.6105 81.3343 63.3499 81.2901C46.9406 81.3079 30.9329 76.2155 17.5499 66.7201C11.2392 62.2519 5.59025 56.916 0.769947 50.8701C0.247073 50.1988 -0.017332 49.3621 0.0248827 48.5123C0.0670974 47.6625 0.413123 46.8562 0.999947 46.2401ZM14.9399 41.8601C12.5825 44.0081 10.3458 46.2849 8.23995 48.6801C12.1934 53.2857 16.6932 57.3926 21.6399 60.9101C33.8214 69.5578 48.3911 74.2023 63.3299 74.2001C77.9814 74.2255 92.2101 69.2911 103.7 60.2001C107.804 56.9038 111.497 53.1268 114.7 48.9501C112.029 46.1384 109.198 43.4839 106.22 41.0001C91.3299 28.7401 74.9999 23.0001 59.1499 23.3301C43.2999 23.6601 27.9299 30.0001 14.8899 41.8601H14.9399ZM61.4899 41.4201C62.9441 41.4201 64.3655 41.8514 65.5744 42.6595C66.7833 43.4675 67.7254 44.616 68.2814 45.9596C68.8374 47.3033 68.9824 48.7816 68.698 50.2076C68.4136 51.6337 67.7125 52.9433 66.6836 53.9708C65.6547 54.9983 64.3441 55.6976 62.9177 55.98C61.4913 56.2625 60.0131 56.1155 58.6703 55.5577C57.3274 54.9999 56.1802 54.0562 55.3738 52.8462C54.5674 51.6362 54.138 50.2142 54.1399 48.7601C54.1399 47.7953 54.3301 46.84 54.6996 45.9488C55.0691 45.0577 55.6107 44.2481 56.2933 43.5663C56.976 42.8846 57.7863 42.3442 58.678 41.9759C59.5697 41.6076 60.5252 41.4187 61.4899 41.4201Z" fill="#AAA9A9"/>
</svg>
